<svg version="1.1" id="Layer_1" xmlns="http://www.w3.org/2000/svg" xmlns:xlink="http://www.w3.org/1999/xlink" x="0px" y="0px"
	 width="100%" viewBox="0 0 592 568" enable-background="new 0 0 592 568" xml:space="preserve">
<path fill="#D93A34" opacity="1.000000" stroke="none" 
	d="
M323.812622,381.861938 
	C323.506470,383.740967 322.905670,385.625275 322.939178,387.498230 
	C323.326904,409.145264 323.865234,430.789581 324.254761,452.436584 
	C324.725922,478.618378 313.237000,498.127716 290.960907,511.506897 
	C273.823425,521.799683 255.014984,527.872375 235.930908,533.266541 
	C212.980240,539.753540 189.857727,545.306641 165.832184,545.494385 
	C123.094551,545.828247 84.500305,534.549072 53.336159,503.847504 
	C30.457590,481.308533 18.546488,453.527283 15.855651,421.642731 
	C13.934768,398.881622 16.312857,376.688599 25.545662,355.664459 
	C38.289288,326.645782 61.312321,309.110504 91.237518,301.228241 
	C113.711029,295.308807 136.779175,291.644348 159.586777,286.996582 
	C178.978867,283.044800 198.388809,279.178406 217.747879,275.071625 
	C219.164230,274.771149 221.168549,272.930267 221.314865,271.627533 
	C222.663147,259.623260 222.422607,247.622635 218.552780,236.059235 
	C213.476700,220.891373 201.980865,213.846619 186.706177,211.965714 
	C166.452393,209.471664 146.850555,213.561859 127.519272,218.603516 
	C107.111679,223.925858 86.979340,230.303558 66.155449,236.387146 
	C57.790157,218.270081 49.185192,199.633957 40.466702,180.751953 
	C58.604046,171.266663 76.940201,163.537048 95.964447,157.453522 
	C142.089310,142.703827 188.812317,139.421600 236.347397,149.830566 
	C279.837372,159.353760 306.489716,186.169891 316.795990,228.929214 
	C319.602203,240.571716 319.058411,253.021667 320.011536,266.022736 
	C320.105103,272.048889 320.167114,277.157104 320.435364,282.254517 
	C320.487976,283.254303 321.338501,284.212067 321.880798,285.705597 
	C321.847626,293.497284 321.625214,300.773834 321.697449,308.047485 
	C321.772583,315.608429 322.186798,323.165314 322.354309,330.726135 
	C322.566315,340.294830 322.601166,349.867828 322.859283,359.434998 
	C323.061005,366.913788 323.486542,374.386505 323.812622,381.861938 
M191.112427,474.818939 
	C192.745865,474.523987 194.378754,474.225861 196.012848,473.934509 
	C217.242310,470.149536 226.160187,459.567780 225.984100,438.020538 
	C225.924332,430.705383 225.154343,423.395782 225.102936,416.080872 
	C224.970596,397.255707 225.058670,378.428986 225.058670,359.602905 
	C225.058670,357.144287 225.058685,354.685669 225.058685,351.877441 
	C214.633530,351.437775 204.667496,351.300812 194.750366,350.532684 
	C179.966629,349.387543 165.480606,350.279694 151.694305,356.094025 
	C139.718384,361.144836 129.901581,368.956055 124.092186,380.861786 
	C113.640366,402.281860 114.997498,424.149597 123.570320,445.553619 
	C129.537674,460.452454 141.190842,469.659943 157.068130,473.387665 
	C168.066650,475.969940 179.092758,476.065094 191.112427,474.818939 
z"/>
<path fill="#263F74" opacity="1.000000" stroke="none" 
	d="
M323.869934,382.340057 
	C323.486542,374.386505 323.061005,366.913788 322.859283,359.434998 
	C322.601166,349.867828 322.566315,340.294830 322.354309,330.726135 
	C322.186798,323.165314 321.772583,315.608429 321.697449,308.047485 
	C321.625214,300.773834 321.847626,293.497284 321.877045,285.328003 
	C321.801636,278.269470 321.789734,272.104889 321.777832,265.940338 
	C321.997162,221.628510 322.690460,177.312592 322.307098,133.005981 
	C321.895233,85.404198 342.128235,49.451942 381.541779,23.792814 
	C384.671387,21.755386 389.024658,21.285334 392.899750,20.777897 
	C398.831329,20.001165 404.836487,19.716547 410.820374,19.433270 
	C414.960266,19.237288 419.116974,19.395597 423.824036,19.395597 
	C427.947571,51.006367 427.242462,82.744400 427.836304,114.834656 
	C475.496887,114.834656 522.748413,114.834656 570.420288,114.834656 
	C572.185486,133.576996 575.432800,151.903671 571.566162,170.306946 
	C569.000916,182.516159 561.017578,191.057068 549.479736,194.736359 
	C535.926880,199.058212 521.979309,202.751450 507.923157,204.754501 
	C481.590240,208.507034 455.055908,210.846115 428.210144,213.816879 
	C428.124237,214.625061 427.903473,215.730804 427.904053,216.836395 
	C427.932343,271.482178 427.779297,326.129456 428.196777,380.772369 
	C428.278595,391.482697 429.434052,402.470032 432.094513,412.815186 
	C437.381165,433.372070 453.813385,445.170471 473.718140,447.841492 
	C483.024048,449.090240 492.657593,448.794373 502.071747,448.154938 
	C522.479187,446.768799 540.745300,453.164642 558.307007,462.451569 
	C562.559143,464.700165 565.018372,468.471130 566.093018,473.451752 
	C572.275330,502.103668 558.345581,524.317017 530.892883,536.212708 
	C497.720856,550.586731 463.742096,551.004761 429.998474,539.413025 
	C380.697266,522.476807 346.504639,489.077271 327.751038,440.402985 
	C325.392731,434.282013 325.690094,427.031830 325.319397,420.274017 
	C324.635254,407.800812 324.368164,395.304718 323.869934,382.340057 
z"/>
<path fill="#CEC1CB" opacity="1.000000" stroke="none" 
	d="
M321.504639,265.950500 
	C321.789734,272.104889 321.801636,278.269470 321.817291,284.811615 
	C321.338501,284.212067 320.487976,283.254303 320.435364,282.254517 
	C320.167114,277.157104 320.105103,272.048889 320.056091,266.489502 
	C320.504669,266.009949 320.868073,265.985321 321.504639,265.950500 
z"/>
<path fill="#FDF5F6" opacity="1.000000" stroke="none" 
	d="
M190.665268,474.854126 
	C179.092758,476.065094 168.066650,475.969940 157.068130,473.387665 
	C141.190842,469.659943 129.537674,460.452454 123.570320,445.553619 
	C114.997498,424.149597 113.640366,402.281860 124.092186,380.861786 
	C129.901581,368.956055 139.718384,361.144836 151.694305,356.094025 
	C165.480606,350.279694 179.966629,349.387543 194.750366,350.532684 
	C204.667496,351.300812 214.633530,351.437775 225.058685,351.877441 
	C225.058685,354.685669 225.058670,357.144287 225.058670,359.602905 
	C225.058670,378.428986 224.970596,397.255707 225.102936,416.080872 
	C225.154343,423.395782 225.924332,430.705383 225.984100,438.020538 
	C226.160187,459.567780 217.242310,470.149536 196.012848,473.934509 
	C194.378754,474.225861 192.745865,474.523987 190.665268,474.854126 
z"/>
</svg>