<svg width="64" height="32" viewBox="0 0 64 32" fill="none" xmlns="http://www.w3.org/2000/svg">
<path d="M32 0C14.327 0 0 7.1635 0 16C0 24.8365 14.327 32 32 32C49.673 32 64 24.8365 64 16C64 7.1635 49.673 0 32 0ZM32 29.474C15.722 29.474 2.526 23.4415 2.526 16C2.526 8.5585 15.722 2.526 32 2.526C48.278 2.526 61.474 8.5585 61.474 16C61.474 23.4415 48.278 29.474 32 29.474ZM27.9645 13.193V10.6665H36.992V13.193H33.742V21.3335H31.215V13.193H27.9645ZM47.889 10.6665V21.3335H45.363L40.7815 14.9835V21.3335H38.2555V10.6665H40.7815L45.363 17.0165V10.6665H47.889ZM16.036 21.3335V10.6665H18.562L21.3685 14.9835L24.175 10.6665H26.7V21.3335H24.175V15.3L22.259 18.245H20.478L18.562 15.3V21.3335H16.036Z" fill="#ffc107"/>
</svg>