<?xml version="1.0" encoding="UTF-8"?>
<svg width="70px" height="70px" viewBox="0 0 70 70" version="1.1" xmlns="http://www.w3.org/2000/svg" xmlns:xlink="http://www.w3.org/1999/xlink">
    <!-- Generator: Sketch 58 (84663) - https://sketch.com -->
    <title>zain_logo</title>
    <desc>Created with Sketch.</desc>
    <g id="zain_logo" stroke="none" stroke-width="1" fill="none" fill-rule="evenodd">
        <path d="M31.1073506,49.9719196 C33.5225484,49.9719196 35.5996213,50.8351649 36.9966113,52.3390681 C38.3492481,53.7950589 39.1039375,55.6704888 39.1039375,58.4550232 L39.1039375,58.4550232 L39.1039375,64.9340177 C39.0360387,64.9377138 38.9537662,64.9419575 38.8905218,64.9419575 C38.0149561,64.9419575 37.282854,64.6633809 36.7870286,64.1689244 C36.3261109,63.7004776 36.0757341,63.0618732 36.0757341,62.1270329 L36.0757341,62.1270329 L36.0757341,59.0907529 C36.0757341,56.6906132 35.4899703,55.1679557 34.4944866,54.1809594 C33.6415082,53.3374266 32.5155657,52.8537847 31.115701,52.8537847 C28.3244589,52.8537847 26.4599803,54.8227124 26.4599803,57.6995124 C26.4599803,60.6257307 28.3141919,62.2247743 30.4346598,62.2247743 C32.4191933,62.2247743 33.6471208,61.0087565 34.0750474,58.7800065 C34.6030425,59.5645385 34.8505445,60.3905491 34.8505445,61.1583802 C34.8505445,63.2336735 33.0577977,65 30.0907854,65 C26.2379404,65 23.2757193,62.1067728 23.2757193,57.7706966 C23.2757193,53.3561809 26.4816094,49.9719196 31.1073506,49.9719196 Z M59.9904778,50.1230491 C60.8482475,50.1230491 61.5528342,50.3977928 62.043047,50.8947133 C62.508619,51.363297 62.7570793,52.0016276 62.7570793,52.9359203 L62.7570793,52.9359203 L62.7570793,62.2767936 C62.7570793,63.0933585 62.5332597,63.8079384 62.0979409,64.2722784 C61.7134093,64.6825458 61.1455784,64.9419575 60.4430451,64.9419575 C59.5030029,64.9419575 58.7870541,64.5423677 57.8717895,63.355508 C56.9442046,62.1568756 52.1107972,55.8324329 50.8356418,54.170008 C50.8036089,54.1285295 50.7780099,54.1104596 50.7392693,54.1104596 C50.6929996,54.1104596 50.6571337,54.1516643 50.6571337,54.2328417 L50.6571337,54.2328417 L50.6571337,64.9348391 C50.5910145,64.9377138 50.5514525,64.9419575 50.4861547,64.9419575 C49.6293433,64.9419575 48.9248935,64.667077 48.4355021,64.1689244 C47.9689718,63.7004776 47.7251659,63.0618732 47.7251659,62.1270329 L47.7251659,62.1270329 L47.7251659,52.789582 C47.7251659,51.9695947 47.9433728,51.2563838 48.3759538,50.7927282 C48.7641814,50.380955 49.329959,50.1230491 50.0355039,50.1230491 C50.9802004,50.1230491 51.699024,50.5168894 52.6077177,51.7088141 C53.4776708,52.8466663 57.4713784,58.0606353 59.6429073,60.8954093 C59.6758984,60.9330548 59.6975275,60.9524936 59.736405,60.9524936 C59.7825378,60.9524936 59.8185406,60.9127947 59.8185406,60.8317542 L59.8185406,60.8317542 L59.8185406,50.1267452 C59.885618,50.1248287 59.9262752,50.1230491 59.9904778,50.1230491 Z M42.0623256,50.0667862 C42.9361117,50.0681552 43.6699935,50.3402978 44.1621227,50.8380397 C44.6260521,51.3066234 44.8745123,51.9452278 44.8745123,52.8792467 L44.8745123,64.9348391 C44.8036019,64.9377138 44.7203711,64.9419575 44.6534306,64.9377138 C43.7842989,64.9377138 43.0475424,64.6633809 42.5621209,64.1689244 C42.0964119,63.6984242 41.8434342,63.0609149 41.8434342,62.1270329 L41.8434342,50.0718513 C41.9131126,50.0681552 41.9981229,50.0667862 42.0623256,50.0667862 Z M18.8654472,50.2863621 C20.0623001,50.2863621 20.8009731,50.5130564 21.2969353,50.9315374 C21.7095299,51.2773284 21.9779765,51.836535 21.9779765,52.4173708 C21.9779765,53.3505683 21.6341021,53.9890358 20.0065848,55.3097766 C19.0610669,56.0776077 12.9043178,61.0498243 11.9767329,61.7950682 C11.9067807,61.8509204 11.8747478,61.9064988 11.8747478,61.9538637 C11.8747478,62.0242265 11.9389505,62.0672108 12.0579103,62.0672108 L12.0579103,62.0672108 L18.8692802,62.0672108 C20.1774269,62.0672108 20.8670923,62.2513315 21.4054913,62.7425025 C21.8692837,63.1690602 22.088312,63.841614 22.088312,64.6184801 L22.088312,64.6184801 L22.088312,64.7158108 L11.1171836,64.7158108 C9.91937252,64.7158108 9.17796167,64.4899378 8.68199942,64.0700879 C8.27310093,63.7262134 8,63.1690602 8,62.5867186 C8,61.6585861 8.32484637,61.0045128 9.9609879,59.6923963 C11.3787856,58.5564607 17.0622966,53.9679543 18.0372464,53.1842437 C18.1126743,53.1244215 18.1448441,53.0889663 18.1448441,53.0302394 C18.1448441,52.9680901 18.078588,52.9359203 17.9568904,52.9359203 L17.9568904,52.9359203 L11.0755682,52.9359203 C9.99315769,52.9359203 9.19028201,52.5817789 8.76700979,51.9752073 C8.49692049,51.5862952 8.38165684,50.9939605 8.38165684,50.4521392 C8.38165684,50.3977928 8.38165684,50.3402978 8.38453159,50.2863621 L8.38453159,50.2863621 Z M43.3602053,45.3634269 C44.3482968,45.3634269 45.153089,46.1621958 45.153089,47.1523407 C45.153089,48.14317 44.3482968,48.9422127 43.3602053,48.9422127 C42.3703342,48.9422127 41.5695119,48.14317 41.5695119,47.1523407 C41.5695119,46.1621958 42.3703342,45.3634269 43.3602053,45.3634269 Z M62.5749846,13.9088387 L62.7553407,13.9145882 L62.7553407,24.4675094 C62.7553407,28.0123459 61.5565714,31.2721717 59.5427429,33.870532 C57.5279562,36.4691661 54.7018064,38.4060609 51.4382845,39.2924411 C51.0699062,38.6171494 50.8611449,37.8416523 50.8611449,37.0189272 C50.8611449,35.3742983 51.7141233,33.9283007 52.9779167,33.0734058 C55.7083369,31.3019313 57.5443976,28.2674378 57.6531667,24.7943693 L57.658278,24.4675094 L57.658278,18.6412193 C57.658278,17.0684591 58.076759,15.9924825 58.8597852,15.2039806 C59.6873016,14.3698934 60.9237164,13.9080174 62.3925751,13.9080174 L62.5749846,13.9088387 Z M38.3569551,33.1970199 C40.0336169,33.1970199 41.3926876,34.5554062 41.3926876,36.2330262 C41.3926876,37.9085928 40.0336169,39.266979 38.3569551,39.266979 C36.6783769,39.266979 35.322044,37.9085928 35.322044,36.2330262 C35.322044,34.5554062 36.6783769,33.1970199 38.3569551,33.1970199 Z M45.4770182,33.1970199 C47.1594294,33.1970199 48.514804,34.5554062 48.514804,36.2330262 C48.514804,37.9085928 47.1594294,39.266979 45.4770182,39.266979 C43.8032311,39.266979 42.44594,37.9085928 42.44594,36.2330262 C42.44594,34.5554062 43.8032311,33.1970199 45.4770182,33.1970199 Z M19.4786307,13.8049372 C24.4724763,13.8049372 27.4894545,16.7819427 27.4894545,20.277224 C27.4894545,21.5616881 27.0757648,22.9495063 26.1869205,24.2775024 C25.4559135,20.524726 23.3966366,18.4769481 20.0557703,18.4769481 C16.4917689,18.4769481 13.3633601,21.168943 13.3633601,26.0920151 C13.3633601,30.9339098 16.5021728,34.2465762 21.2043001,34.2465762 C23.5562535,34.2465762 25.4530387,33.4350763 26.8876742,32.0135825 C28.5663894,30.3540324 29.5485945,27.7874312 29.5485945,23.7522451 L29.5485945,18.6412193 C29.5485945,17.0684591 29.9670754,15.9924825 30.7491434,15.2039806 C31.5785763,14.3698934 32.8159494,13.9080174 34.2857663,13.9080174 C34.3981552,13.9080174 34.5360061,13.9080174 34.6493533,13.9145882 L34.6493533,24.8234305 C34.6493533,25.2209669 34.6389495,25.6075518 34.6211534,25.9815427 L42.5234213,25.9815427 C45.4213028,25.9815427 47.7705184,23.6315057 47.7705184,20.7333504 L47.7705184,18.6412193 C47.7705184,17.0684591 48.1870829,15.9924825 48.9692878,15.2039806 C49.7994051,14.3698934 51.0359568,13.9080174 52.5083747,13.9080174 C52.6170675,13.9080174 52.7560136,13.9080174 52.8674442,13.9145882 L52.8674442,19.0321849 L52.85882,20.7333504 C52.85882,26.4462934 48.2304779,31.0709394 42.5234213,31.0709394 L33.6273124,31.0709394 C33.0303234,32.636855 32.1784401,33.9555424 31.1006839,35.1165293 C28.7487304,37.6441161 25.2518065,39.0965476 21.1882836,39.0965476 C13.4049755,39.0965476 8.00195757,33.4020852 8.00195757,25.9692223 C8.00195757,18.6724309 12.9949818,13.8049372 19.4786307,13.8049372 Z M21.3251763,22.6453307 C23.0018381,22.6453307 24.3591292,24.0072762 24.3591292,25.6829797 C24.3591292,27.3619687 23.0018381,28.7178908 21.3251763,28.7178908 C19.6429019,28.7178908 18.2873904,27.3619687 18.2873904,25.6829797 C18.2873904,24.0072762 19.6429019,22.6453307 21.3251763,22.6453307 Z M59.7176918,6 C61.3959962,6 62.7553407,7.36016585 62.7553407,9.03586937 C62.7553407,10.7129418 61.3959962,12.0717387 59.7176918,12.0717387 C58.0389766,12.0717387 56.6826437,10.7129418 56.6826437,9.03586937 C56.6826437,7.36016585 58.0389766,6 59.7176918,6 Z" id="Combined-Shape" fill="#95C11F"></path>
        <path d="M31.1073506,49.9719196 C33.5225484,49.9719196 35.5996213,50.8351649 36.9966113,52.3390681 C38.3492481,53.7950589 39.1039375,55.6704888 39.1039375,58.4550232 L39.1039375,58.4550232 L39.1039375,64.9340177 C39.0360387,64.9377138 38.9537662,64.9419575 38.8905218,64.9419575 C38.0149561,64.9419575 37.282854,64.6633809 36.7870286,64.1689244 C36.3261109,63.7004776 36.0757341,63.0618732 36.0757341,62.1270329 L36.0757341,62.1270329 L36.0757341,59.0907529 C36.0757341,56.6906132 35.4899703,55.1679557 34.4944866,54.1809594 C33.6415082,53.3374266 32.5155657,52.8537847 31.115701,52.8537847 C28.3244589,52.8537847 26.4599803,54.8227124 26.4599803,57.6995124 C26.4599803,60.6257307 28.3141919,62.2247743 30.4346598,62.2247743 C32.4191933,62.2247743 33.6471208,61.0087565 34.0750474,58.7800065 C34.6030425,59.5645385 34.8505445,60.3905491 34.8505445,61.1583802 C34.8505445,63.2336735 33.0577977,65 30.0907854,65 C26.2379404,65 23.2757193,62.1067728 23.2757193,57.7706966 C23.2757193,53.3561809 26.4816094,49.9719196 31.1073506,49.9719196 Z M59.9904778,50.1230491 C60.8482475,50.1230491 61.5528342,50.3977928 62.043047,50.8947133 C62.508619,51.363297 62.7570793,52.0016276 62.7570793,52.9359203 L62.7570793,52.9359203 L62.7570793,62.2767936 C62.7570793,63.0933585 62.5332597,63.8079384 62.0979409,64.2722784 C61.7134093,64.6825458 61.1455784,64.9419575 60.4430451,64.9419575 C59.5030029,64.9419575 58.7870541,64.5423677 57.8717895,63.355508 C56.9442046,62.1568756 52.1107972,55.8324329 50.8356418,54.170008 C50.8036089,54.1285295 50.7780099,54.1104596 50.7392693,54.1104596 C50.6929996,54.1104596 50.6571337,54.1516643 50.6571337,54.2328417 L50.6571337,54.2328417 L50.6571337,64.9348391 C50.5910145,64.9377138 50.5514525,64.9419575 50.4861547,64.9419575 C49.6293433,64.9419575 48.9248935,64.667077 48.4355021,64.1689244 C47.9689718,63.7004776 47.7251659,63.0618732 47.7251659,62.1270329 L47.7251659,62.1270329 L47.7251659,52.789582 C47.7251659,51.9695947 47.9433728,51.2563838 48.3759538,50.7927282 C48.7641814,50.380955 49.329959,50.1230491 50.0355039,50.1230491 C50.9802004,50.1230491 51.699024,50.5168894 52.6077177,51.7088141 C53.4776708,52.8466663 57.4713784,58.0606353 59.6429073,60.8954093 C59.6758984,60.9330548 59.6975275,60.9524936 59.736405,60.9524936 C59.7825378,60.9524936 59.8185406,60.9127947 59.8185406,60.8317542 L59.8185406,60.8317542 L59.8185406,50.1267452 C59.885618,50.1248287 59.9262752,50.1230491 59.9904778,50.1230491 Z M42.0623256,50.0667862 C42.9361117,50.0681552 43.6699935,50.3402978 44.1621227,50.8380397 C44.6260521,51.3066234 44.8745123,51.9452278 44.8745123,52.8792467 L44.8745123,64.9348391 C44.8036019,64.9377138 44.7203711,64.9419575 44.6534306,64.9377138 C43.7842989,64.9377138 43.0475424,64.6633809 42.5621209,64.1689244 C42.0964119,63.6984242 41.8434342,63.0609149 41.8434342,62.1270329 L41.8434342,50.0718513 C41.9131126,50.0681552 41.9981229,50.0667862 42.0623256,50.0667862 Z M18.8654472,50.2863621 C20.0623001,50.2863621 20.8009731,50.5130564 21.2969353,50.9315374 C21.7095299,51.2773284 21.9779765,51.836535 21.9779765,52.4173708 C21.9779765,53.3505683 21.6341021,53.9890358 20.0065848,55.3097766 C19.0610669,56.0776077 12.9043178,61.0498243 11.9767329,61.7950682 C11.9067807,61.8509204 11.8747478,61.9064988 11.8747478,61.9538637 C11.8747478,62.0242265 11.9389505,62.0672108 12.0579103,62.0672108 L12.0579103,62.0672108 L18.8692802,62.0672108 C20.1774269,62.0672108 20.8670923,62.2513315 21.4054913,62.7425025 C21.8692837,63.1690602 22.088312,63.841614 22.088312,64.6184801 L22.088312,64.6184801 L22.088312,64.7158108 L11.1171836,64.7158108 C9.91937252,64.7158108 9.17796167,64.4899378 8.68199942,64.0700879 C8.27310093,63.7262134 8,63.1690602 8,62.5867186 C8,61.6585861 8.32484637,61.0045128 9.9609879,59.6923963 C11.3787856,58.5564607 17.0622966,53.9679543 18.0372464,53.1842437 C18.1126743,53.1244215 18.1448441,53.0889663 18.1448441,53.0302394 C18.1448441,52.9680901 18.078588,52.9359203 17.9568904,52.9359203 L17.9568904,52.9359203 L11.0755682,52.9359203 C9.99315769,52.9359203 9.19028201,52.5817789 8.76700979,51.9752073 C8.49692049,51.5862952 8.38165684,50.9939605 8.38165684,50.4521392 C8.38165684,50.3977928 8.38165684,50.3402978 8.38453159,50.2863621 L8.38453159,50.2863621 Z M43.3602053,45.3634269 C44.3482968,45.3634269 45.153089,46.1621958 45.153089,47.1523407 C45.153089,48.14317 44.3482968,48.9422127 43.3602053,48.9422127 C42.3703342,48.9422127 41.5695119,48.14317 41.5695119,47.1523407 C41.5695119,46.1621958 42.3703342,45.3634269 43.3602053,45.3634269 Z M62.5749846,13.9088387 L62.7553407,13.9145882 L62.7553407,24.4675094 C62.7553407,28.0123459 61.5565714,31.2721717 59.5427429,33.870532 C57.5279562,36.4691661 54.7018064,38.4060609 51.4382845,39.2924411 C51.0699062,38.6171494 50.8611449,37.8416523 50.8611449,37.0189272 C50.8611449,35.3742983 51.7141233,33.9283007 52.9779167,33.0734058 C55.7083369,31.3019313 57.5443976,28.2674378 57.6531667,24.7943693 L57.658278,24.4675094 L57.658278,18.6412193 C57.658278,17.0684591 58.076759,15.9924825 58.8597852,15.2039806 C59.6873016,14.3698934 60.9237164,13.9080174 62.3925751,13.9080174 L62.5749846,13.9088387 Z M38.3569551,33.1970199 C40.0336169,33.1970199 41.3926876,34.5554062 41.3926876,36.2330262 C41.3926876,37.9085928 40.0336169,39.266979 38.3569551,39.266979 C36.6783769,39.266979 35.322044,37.9085928 35.322044,36.2330262 C35.322044,34.5554062 36.6783769,33.1970199 38.3569551,33.1970199 Z M45.4770182,33.1970199 C47.1594294,33.1970199 48.514804,34.5554062 48.514804,36.2330262 C48.514804,37.9085928 47.1594294,39.266979 45.4770182,39.266979 C43.8032311,39.266979 42.44594,37.9085928 42.44594,36.2330262 C42.44594,34.5554062 43.8032311,33.1970199 45.4770182,33.1970199 Z M19.4786307,13.8049372 C24.4724763,13.8049372 27.4894545,16.7819427 27.4894545,20.277224 C27.4894545,21.5616881 27.0757648,22.9495063 26.1869205,24.2775024 C25.4559135,20.524726 23.3966366,18.4769481 20.0557703,18.4769481 C16.4917689,18.4769481 13.3633601,21.168943 13.3633601,26.0920151 C13.3633601,30.9339098 16.5021728,34.2465762 21.2043001,34.2465762 C23.5562535,34.2465762 25.4530387,33.4350763 26.8876742,32.0135825 C28.5663894,30.3540324 29.5485945,27.7874312 29.5485945,23.7522451 L29.5485945,18.6412193 C29.5485945,17.0684591 29.9670754,15.9924825 30.7491434,15.2039806 C31.5785763,14.3698934 32.8159494,13.9080174 34.2857663,13.9080174 C34.3981552,13.9080174 34.5360061,13.9080174 34.6493533,13.9145882 L34.6493533,24.8234305 C34.6493533,25.2209669 34.6389495,25.6075518 34.6211534,25.9815427 L42.5234213,25.9815427 C45.4213028,25.9815427 47.7705184,23.6315057 47.7705184,20.7333504 L47.7705184,18.6412193 C47.7705184,17.0684591 48.1870829,15.9924825 48.9692878,15.2039806 C49.7994051,14.3698934 51.0359568,13.9080174 52.5083747,13.9080174 C52.6170675,13.9080174 52.7560136,13.9080174 52.8674442,13.9145882 L52.8674442,19.0321849 L52.85882,20.7333504 C52.85882,26.4462934 48.2304779,31.0709394 42.5234213,31.0709394 L33.6273124,31.0709394 C33.0303234,32.636855 32.1784401,33.9555424 31.1006839,35.1165293 C28.7487304,37.6441161 25.2518065,39.0965476 21.1882836,39.0965476 C13.4049755,39.0965476 8.00195757,33.4020852 8.00195757,25.9692223 C8.00195757,18.6724309 12.9949818,13.8049372 19.4786307,13.8049372 Z M21.3251763,22.6453307 C23.0018381,22.6453307 24.3591292,24.0072762 24.3591292,25.6829797 C24.3591292,27.3619687 23.0018381,28.7178908 21.3251763,28.7178908 C19.6429019,28.7178908 18.2873904,27.3619687 18.2873904,25.6829797 C18.2873904,24.0072762 19.6429019,22.6453307 21.3251763,22.6453307 Z M59.7176918,6 C61.3959962,6 62.7553407,7.36016585 62.7553407,9.03586937 C62.7553407,10.7129418 61.3959962,12.0717387 59.7176918,12.0717387 C58.0389766,12.0717387 56.6826437,10.7129418 56.6826437,9.03586937 C56.6826437,7.36016585 58.0389766,6 59.7176918,6 Z" id="Combined-Shape-Copy" fill="#95C11F"></path>
    </g>
</svg>